<svg width="41" height="41" viewBox="0 0 41 41" fill="none" xmlns="http://www.w3.org/2000/svg">
<rect x="0.947266" y="0.5" width="40" height="40" rx="20" fill="#EB2A3B"/>
<g clip-path="url(#clip0_6_852)">
<path fill-rule="evenodd" clip-rule="evenodd" d="M15.9473 10.5C13.1858 10.5 10.9473 12.7386 10.9473 15.5V25.5C10.9473 28.2614 13.1858 30.5 15.9473 30.5H25.9473C28.7087 30.5 30.9473 28.2614 30.9473 25.5V15.5C30.9473 12.7386 28.7087 10.5 25.9473 10.5H15.9473ZM20.9473 25.5C23.7087 25.5 25.9473 23.2614 25.9473 20.5C25.9473 17.7386 23.7087 15.5 20.9473 15.5C18.1858 15.5 15.9473 17.7386 15.9473 20.5C15.9473 23.2614 18.1858 25.5 20.9473 25.5ZM27.9473 14.5C27.9473 15.0523 27.4996 15.5 26.9473 15.5C26.395 15.5 25.9473 15.0523 25.9473 14.5C25.9473 13.9477 26.395 13.5 26.9473 13.5C27.4996 13.5 27.9473 13.9477 27.9473 14.5ZM20.9473 23.5C22.6042 23.5 23.9473 22.1569 23.9473 20.5C23.9473 18.8432 22.6042 17.5 20.9473 17.5C19.2904 17.5 17.9473 18.8432 17.9473 20.5C17.9473 22.1569 19.2904 23.5 20.9473 23.5Z" fill="#F2F2F2"/>
</g>
<defs>
<clipPath id="clip0_6_852">
<rect width="20" height="20" fill="white" transform="translate(10.9473 10.5)"/>
</clipPath>
</defs>
</svg>
