<svg width="201" height="80" viewBox="0 0 201 80" fill="none" xmlns="http://www.w3.org/2000/svg">
<path d="M39.6257 63.9392C37.3207 60.9968 29.7088 51.2513 22.7223 42.3197C15.7179 33.3672 9.98217 25.9799 10 25.9173C10 25.8546 13.2878 22.2444 17.3082 17.9247L24.5985 10.0365L43.6997 10.0157C54.1884 9.99478 66.7677 9.99478 71.6279 10.0157L80.4727 10.0365L87.7094 17.883C91.694 22.2027 94.9639 25.8129 94.9996 25.8964C95.0354 26.0007 92.373 29.4857 89.1031 33.6594C85.8332 37.833 78.2213 47.5576 72.1997 55.2789C66.1602 63.0001 61.2107 69.3023 61.1928 69.3023C61.157 69.3023 59.2273 66.8607 56.8865 63.8766C54.5636 60.8924 52.5981 58.4508 52.5266 58.4508C52.4552 58.4508 50.579 60.7881 48.3455 63.6262C46.1298 66.4851 44.2 68.9267 44.0571 69.0519C43.8605 69.2606 43.0207 68.3006 39.6257 63.9392ZM46.6122 57.6996L49.3282 54.2355L48.9709 53.7972C48.1489 52.6912 33.3361 33.7428 30.4771 30.0909C28.726 27.8789 27.3144 26.0007 27.3502 25.9173C27.3859 25.8338 29.2085 23.8096 31.4242 21.4306C33.6398 19.0307 35.7304 16.7561 36.0699 16.3805L36.6953 15.6709H31.5135L26.3317 15.6918L22.9188 19.3855C21.0605 21.4097 18.8627 23.7887 18.0408 24.6652L16.5756 26.2511L26.0994 38.4591C40.3226 56.6562 43.8426 61.1637 43.8784 61.1637C43.8963 61.1637 45.1292 59.5986 46.6122 57.6996ZM72.8965 46.2429C78.6323 38.8973 84.4752 31.4056 85.9047 29.5901C88.4241 26.3555 88.4777 26.272 88.1382 25.8964C87.9595 25.6877 85.7439 23.2879 83.2423 20.5958L78.6859 15.6918L73.5041 15.6709C69.0727 15.6709 68.3759 15.7127 68.5903 15.9631C68.7332 16.13 70.8774 18.4256 73.3254 21.0758C75.7912 23.747 77.7746 25.959 77.7567 26.0216C77.721 26.1259 57.5298 51.9608 56.3326 53.4425L55.7251 54.1937L58.4411 57.6787L61.157 61.1846L61.8182 60.3916C62.1755 59.9534 67.1608 53.5885 72.8965 46.2429ZM62.0683 37.8956C66.9821 31.6143 71.0204 26.4181 71.0561 26.3137C71.074 26.2303 68.9119 23.8096 66.2316 20.9089L61.3536 15.6709H52.5088H43.664L40.3583 19.2812C38.5358 21.2428 36.3201 23.6426 35.4445 24.5608L33.8543 26.2511L37.5173 30.9256C52.5981 50.2496 52.5445 50.187 52.8483 49.7279C53.0091 49.4984 57.1545 44.177 62.0683 37.8956Z" fill="#EB2A3B" stroke="#EB2A3B"/>
<path d="M48.4885 41.0165C47.7023 39.8803 47.059 38.8601 47.059 38.7442C47.059 38.6282 49.1854 35.498 51.7941 31.7649C54.4029 28.055 56.5471 24.9248 56.5828 24.832C56.6007 24.7393 55.0998 22.8379 53.2236 20.5888L49.8286 16.4847H53.3129H56.7973L60.085 20.4497L63.3728 24.4378L56.8151 33.7126C53.2236 38.8137 50.2038 43.0338 50.0966 43.057C50.0073 43.0801 49.2747 42.1758 48.4885 41.0165Z" fill="#EB2A3B" stroke="#EB2A3B"/>
<path d="M112.28 24.4512H115.16C117.4 24.4512 118.861 25.3898 119.544 27.2672C119.8 27.9498 119.928 28.8512 119.928 29.9712C119.928 31.0805 119.805 32.0192 119.56 32.7872C119.315 33.5445 118.968 34.1365 118.52 34.5632C118.072 34.9898 117.528 35.2778 116.888 35.4272C116.259 35.5765 115.549 35.6512 114.76 35.6512H112.28V24.4512ZM113.368 25.3312V34.7712H114.68C115.235 34.7712 115.768 34.7232 116.28 34.6272C117.987 34.3285 118.84 32.7445 118.84 29.8752C118.84 28.2645 118.467 27.0752 117.72 26.3072C117.069 25.6565 116.189 25.3312 115.08 25.3312H113.368ZM126.573 24.3872C129.719 24.3872 131.293 26.2858 131.293 30.0832C131.293 31.8218 130.845 33.1978 129.949 34.2112C129.053 35.2138 127.927 35.7152 126.573 35.7152C125.133 35.7152 124.018 35.3205 123.229 34.5312C122.311 33.5925 121.853 32.1792 121.853 30.2912C121.853 28.4032 122.301 26.9472 123.197 25.9232C124.103 24.8992 125.229 24.3872 126.573 24.3872ZM124.013 33.7632C124.599 34.4245 125.453 34.7552 126.573 34.7552C127.629 34.7552 128.498 34.3392 129.181 33.5072C129.863 32.6645 130.205 31.4592 130.205 29.8912C130.205 28.3232 129.847 27.1445 129.133 26.3552C128.535 25.6832 127.682 25.3472 126.573 25.3472C125.527 25.3472 124.658 25.7685 123.965 26.6112C123.282 27.4538 122.941 28.6645 122.941 30.2432C122.941 31.8112 123.298 32.9845 124.013 33.7632ZM133.168 35.6512V24.4512H134.256L138.368 32.6432L142.48 24.4512H143.568V35.6512H142.56V26.3072L138.912 33.5552H137.824L134.176 26.3072V35.6512H133.168ZM148.675 35.6512H145.667V34.8832L146.627 34.7712V25.3472L145.747 25.2352V24.4512H148.595V25.2352L147.715 25.3472V34.7712L148.675 34.8832V35.6512ZM158.277 35.6512L151.893 25.8912L151.973 35.6512H150.965V24.4512H152.133L158.501 34.2112L158.437 24.4512H159.445V35.6512H158.277ZM168.009 32.6912H163.081L162.057 35.6512H161.017L165.065 24.4512H166.041L170.233 35.6512H169.065L168.009 32.6912ZM163.353 31.8912H167.721L165.497 25.6672L163.353 31.8912ZM179.277 35.6512L172.893 25.8912L172.973 35.6512H171.965V24.4512H173.133L179.501 34.2112L179.437 24.4512H180.445V35.6512H179.277ZM184.982 35.6512V25.4112H181.814L181.894 24.4512H189.142L189.062 25.4112H185.99V35.6512H184.982ZM118.024 44.4112H113.368V48.6192H117.688L117.608 49.5792H113.368V53.6912H118.424L118.344 54.6512H112.28V43.4512H118.104L118.024 44.4112ZM123.815 49.4992L120.871 54.6512H119.751L123.319 48.6832L120.023 43.4512H121.271L124.023 48.0272L126.647 43.4512H127.767L124.519 48.8432L128.183 54.6512H126.935L123.815 49.4992ZM129.999 54.6512V43.4512H132.319C133.631 43.4512 134.58 43.6592 135.167 44.0752C135.849 44.5552 136.191 45.3765 136.191 46.5392C136.191 48.4805 135.444 49.6645 133.951 50.0912C133.471 50.2298 132.927 50.2992 132.319 50.2992H131.087V54.6512H129.999ZM131.087 44.3312V49.4192H132.239C133.199 49.4192 133.913 49.2112 134.383 48.7952C134.863 48.3685 135.103 47.6805 135.103 46.7312C135.103 45.7712 134.863 45.1312 134.383 44.8112C133.913 44.4912 133.199 44.3312 132.239 44.3312H131.087ZM144.269 46.4592C144.269 47.9952 143.741 49.0245 142.685 49.5472L145.101 54.6512H143.933L141.661 49.8832C141.277 49.9472 140.856 49.9792 140.397 49.9792H139.165V54.6512H138.077V43.4512H140.397C141.698 43.4512 142.648 43.6538 143.245 44.0592C143.928 44.5178 144.269 45.3178 144.269 46.4592ZM139.165 44.3312V49.0992H140.317C141.266 49.0992 141.981 48.9072 142.461 48.5232C142.941 48.1392 143.181 47.4725 143.181 46.5232C143.181 45.3072 142.626 44.6032 141.517 44.4112C141.165 44.3578 140.765 44.3312 140.317 44.3312H139.165ZM152.696 44.4112H148.04V48.6192H152.36L152.28 49.5792H148.04V53.6912H153.096L153.016 54.6512H146.952V43.4512H152.776L152.696 44.4112ZM161.19 43.7392L160.998 44.6512C160.177 44.4698 159.478 44.3792 158.902 44.3792C156.833 44.3792 155.798 45.0085 155.798 46.2672C155.798 46.7472 155.948 47.1152 156.246 47.3712C156.556 47.6272 156.94 47.8405 157.398 48.0112C157.868 48.1712 158.369 48.3205 158.902 48.4592C159.436 48.5872 159.932 48.7632 160.39 48.9872C161.468 49.5205 162.006 50.3365 162.006 51.4352C162.006 52.5338 161.596 53.3658 160.774 53.9312C160.07 54.4218 159.142 54.6672 157.99 54.6672C156.561 54.6672 155.356 54.3418 154.374 53.6912L154.79 52.8752C155.078 53.0778 155.489 53.2698 156.022 53.4512C156.556 53.6218 157.073 53.7072 157.574 53.7072C158.556 53.7072 159.329 53.5472 159.894 53.2272C160.577 52.8325 160.918 52.2672 160.918 51.5312C160.918 50.9872 160.764 50.5658 160.454 50.2672C160.156 49.9578 159.772 49.7125 159.302 49.5312C158.844 49.3392 158.348 49.1792 157.814 49.0512C157.281 48.9125 156.785 48.7418 156.326 48.5392C155.249 48.0698 154.71 47.3712 154.71 46.4432C154.71 45.5152 155.03 44.7792 155.67 44.2352C156.31 43.6912 157.217 43.4192 158.39 43.4192C159.297 43.4192 160.23 43.5258 161.19 43.7392ZM169.94 43.7392L169.748 44.6512C168.927 44.4698 168.228 44.3792 167.652 44.3792C165.583 44.3792 164.548 45.0085 164.548 46.2672C164.548 46.7472 164.698 47.1152 164.996 47.3712C165.306 47.6272 165.69 47.8405 166.148 48.0112C166.618 48.1712 167.119 48.3205 167.652 48.4592C168.186 48.5872 168.682 48.7632 169.14 48.9872C170.218 49.5205 170.756 50.3365 170.756 51.4352C170.756 52.5338 170.346 53.3658 169.524 53.9312C168.82 54.4218 167.892 54.6672 166.74 54.6672C165.311 54.6672 164.106 54.3418 163.124 53.6912L163.54 52.8752C163.828 53.0778 164.239 53.2698 164.772 53.4512C165.306 53.6218 165.823 53.7072 166.324 53.7072C167.306 53.7072 168.079 53.5472 168.644 53.2272C169.327 52.8325 169.668 52.2672 169.668 51.5312C169.668 50.9872 169.514 50.5658 169.204 50.2672C168.906 49.9578 168.522 49.7125 168.052 49.5312C167.594 49.3392 167.098 49.1792 166.564 49.0512C166.031 48.9125 165.535 48.7418 165.076 48.5392C163.999 48.0698 163.46 47.3712 163.46 46.4432C163.46 45.5152 163.78 44.7792 164.42 44.2352C165.06 43.6912 165.967 43.4192 167.14 43.4192C168.047 43.4192 168.98 43.5258 169.94 43.7392Z" fill="#F2F2F2"/>
</svg>
