<svg width="102" height="72" viewBox="0 0 102 72" fill="none" xmlns="http://www.w3.org/2000/svg">
<path d="M35.5509 65.4885C32.7848 61.9161 23.6506 50.0839 15.2667 39.2399C6.86149 28.3705 -0.021392 19.4014 4.99627e-05 19.3254C4.99627e-05 19.2494 3.94538 14.8662 8.76982 9.62154L17.5182 0.0443389L40.4396 0.0190024C53.0261 -0.00633412 68.1212 -0.00633412 73.9535 0.0190024L84.5672 0.0443389L93.2512 9.57086C98.0328 14.8155 101.957 19.1987 102 19.3001C102.042 19.4268 98.8476 23.658 94.9237 28.7253C90.9998 33.7926 81.8656 45.5994 74.6396 54.9739C67.3922 64.3484 61.4528 72 61.4313 72C61.3885 72 59.0727 69.0356 56.2638 65.4125C53.4764 61.7894 51.1177 58.825 51.032 58.825C50.9462 58.825 48.6948 61.6627 46.0146 65.1085C43.3557 68.5796 41.04 71.5439 40.8685 71.696C40.6326 71.9493 39.6248 70.7838 35.5509 65.4885ZM43.9347 57.9129L47.1939 53.707L46.765 53.175C45.7787 51.8321 28.0033 28.8266 24.5726 24.3927C22.4712 21.707 20.7773 19.4268 20.8202 19.3254C20.8631 19.2241 23.0502 16.7664 25.709 13.8781C28.3678 10.9644 30.8765 8.20269 31.2839 7.74664L32.0344 6.88519H25.8162L19.598 6.91053L15.5026 11.3951C13.2726 13.8527 10.6353 16.7411 9.64894 17.8052L7.8907 19.7308L19.3193 34.5527C36.3871 56.6461 40.6112 62.1188 40.6541 62.1188C40.6755 62.1188 42.155 60.2185 43.9347 57.9129ZM75.4758 44.0032C82.3587 35.0847 89.3702 25.9889 91.0856 23.7846C94.1089 19.8575 94.1733 19.7561 93.7659 19.3001C93.5514 19.0467 90.8926 16.133 87.8908 12.8646L82.423 6.91053L76.2049 6.88519C70.8873 6.88519 70.051 6.93587 70.3083 7.2399C70.4799 7.4426 73.0529 10.2296 75.9904 13.4473C78.9494 16.6904 81.3295 19.3761 81.3081 19.4521C81.2652 19.5788 57.0357 50.9454 55.5991 52.7443L54.8701 53.6564L58.1293 57.8876L61.3885 62.1441L62.1818 61.1813C62.6107 60.6493 68.593 52.9216 75.4758 44.0032ZM62.482 33.8686C68.3785 26.2423 73.2244 19.9335 73.2673 19.8068C73.2888 19.7055 70.6943 16.7664 67.478 13.2447L61.6243 6.88519H51.0105H40.3968L36.43 11.2684C34.2429 13.65 31.5841 16.5637 30.5334 17.6785L28.6251 19.7308L33.0207 25.4062C51.1177 48.8678 51.0534 48.7918 51.4179 48.2344C51.6109 47.9557 56.5855 41.4949 62.482 33.8686Z" fill="#F2F2F2"/>
<path d="M46.1861 37.6577C45.2426 36.2783 44.4707 35.0396 44.4707 34.8988C44.4707 34.7581 47.0223 30.9576 50.1528 26.4252C53.2834 21.9209 55.8564 18.1204 55.8993 18.0078C55.9207 17.8952 54.1196 15.5868 51.8682 12.8561L47.7942 7.87323H51.9754H56.1566L60.1019 12.6872L64.0472 17.5293L56.178 28.7899C51.8682 34.9833 48.2445 40.1069 48.1158 40.1351C48.0086 40.1632 47.1295 39.0653 46.1861 37.6577Z" fill="#F2F2F2"/>
</svg>
