<svg width="122" height="86" viewBox="0 0 122 86" fill="none" xmlns="http://www.w3.org/2000/svg">
<path d="M42.7223 77.1494C39.4682 72.9954 28.722 59.2371 18.8587 46.6278C8.97013 33.989 0.87263 23.5598 0.897855 23.4714C0.897855 23.383 5.53941 18.2863 11.2152 12.1878L21.5074 1.05156L48.4738 1.0221C63.2814 0.992635 81.0404 0.992635 87.9019 1.0221L100.389 1.05156L110.605 12.1289C116.231 18.2273 120.847 23.3241 120.897 23.442C120.948 23.5893 117.189 28.5093 112.573 34.4015C107.956 40.2937 97.2102 54.0225 88.7091 64.9231C80.1828 75.8237 73.1952 84.7209 73.17 84.7209C73.1195 84.7209 70.3951 81.274 67.0905 77.0611C63.8112 72.8481 61.0363 69.4012 60.9354 69.4012C60.8345 69.4012 58.1858 72.7008 55.0326 76.7075C51.9046 80.7437 49.1802 84.1906 48.9784 84.3674C48.7009 84.662 47.5153 83.3068 42.7223 77.1494ZM52.5857 68.3406L56.42 63.4501L55.9155 62.8314C54.7551 61.2699 33.8428 34.5193 29.8067 29.3636C27.3346 26.2408 25.3417 23.5893 25.3922 23.4714C25.4426 23.3536 28.0157 20.4958 31.1437 17.1373C34.2717 13.7493 37.2231 10.538 37.7024 10.0077L38.5853 9.00604H31.2698L23.9543 9.0355L19.1362 14.2501C16.5127 17.1078 13.4099 20.4664 12.2495 21.7038L10.181 23.9428L23.6264 41.1775C43.7061 66.8675 48.6756 73.2311 48.7261 73.2311C48.7513 73.2311 50.4919 71.0216 52.5857 68.3406ZM89.6929 52.1665C97.7904 41.7962 106.039 31.2197 108.057 28.6566C111.614 24.0901 111.69 23.9723 111.211 23.442C110.958 23.1473 107.83 19.7593 104.299 15.9588L97.8661 9.0355L90.5506 9.00604C84.2946 9.00604 83.3108 9.06496 83.6135 9.41849C83.8153 9.65418 86.8424 12.8949 90.2983 16.6365C93.7795 20.4075 96.5796 23.5303 96.5543 23.6187C96.5039 23.766 67.9987 60.2388 66.3085 62.3305L65.4508 63.3911L69.2852 68.3111L73.1195 73.2606L74.0529 72.1411C74.5574 71.5224 81.5954 62.5368 89.6929 52.1665ZM74.406 40.3821C81.3431 31.5143 87.0442 24.1785 87.0946 24.0312C87.1199 23.9133 84.0675 20.4958 80.2836 16.4008L73.397 9.00604H60.9102H48.4234L43.7566 14.1028C41.1836 16.8721 38.0556 20.2602 36.8195 21.5564L34.5744 23.9428L39.7457 30.5421C61.0363 57.823 60.9606 57.7346 61.3895 57.0865C61.6165 56.7624 67.4689 49.2498 74.406 40.3821Z" fill="#EB2A3B" stroke="#EB2A3B"/>
<path d="M55.2345 44.7879C54.1245 43.1839 53.2164 41.7436 53.2164 41.5799C53.2164 41.4162 56.2183 36.9971 59.9013 31.7268C63.5842 26.4893 66.6114 22.0701 66.6618 21.9392C66.687 21.8083 64.5681 19.124 61.9193 15.9488L57.1264 10.1548H62.0455H66.9645L71.6061 15.7524L76.2476 21.3827L66.9897 34.4765C61.9193 41.6781 57.6562 47.6358 57.5048 47.6685C57.3787 47.7013 56.3444 46.4246 55.2345 44.7879Z" fill="#EB2A3B" stroke="#EB2A3B"/>
</svg>
