<svg width="242" height="86" viewBox="0 0 242 86" fill="none" xmlns="http://www.w3.org/2000/svg">
<path d="M42.7223 77.1494C39.4682 72.9954 28.722 59.2371 18.8587 46.6278C8.97013 33.989 0.87263 23.5598 0.897855 23.4714C0.897855 23.383 5.53941 18.2863 11.2152 12.1878L21.5074 1.05156L48.4738 1.0221C63.2814 0.992635 81.0404 0.992635 87.9019 1.0221L100.389 1.05156L110.605 12.1289C116.231 18.2273 120.847 23.3241 120.897 23.442C120.948 23.5893 117.189 28.5093 112.573 34.4015C107.956 40.2937 97.2102 54.0225 88.7091 64.9231C80.1828 75.8237 73.1952 84.7209 73.17 84.7209C73.1195 84.7209 70.3951 81.274 67.0905 77.0611C63.8112 72.8481 61.0363 69.4012 60.9354 69.4012C60.8345 69.4012 58.1858 72.7008 55.0326 76.7075C51.9046 80.7437 49.1802 84.1906 48.9784 84.3674C48.7009 84.662 47.5153 83.3068 42.7223 77.1494ZM52.5857 68.3406L56.42 63.4501L55.9155 62.8314C54.7551 61.2699 33.8428 34.5193 29.8067 29.3636C27.3346 26.2408 25.3417 23.5893 25.3922 23.4714C25.4426 23.3536 28.0157 20.4958 31.1437 17.1373C34.2717 13.7493 37.2231 10.538 37.7024 10.0077L38.5853 9.00604H31.2698L23.9543 9.0355L19.1362 14.2501C16.5127 17.1078 13.4099 20.4664 12.2495 21.7038L10.181 23.9428L23.6264 41.1775C43.7061 66.8675 48.6756 73.2311 48.7261 73.2311C48.7513 73.2311 50.4919 71.0216 52.5857 68.3406ZM89.6929 52.1665C97.7904 41.7962 106.039 31.2197 108.057 28.6566C111.614 24.0901 111.69 23.9723 111.211 23.442C110.958 23.1473 107.83 19.7593 104.299 15.9588L97.8661 9.0355L90.5506 9.00604C84.2946 9.00604 83.3108 9.06496 83.6135 9.41849C83.8153 9.65418 86.8424 12.8949 90.2983 16.6365C93.7795 20.4075 96.5796 23.5303 96.5543 23.6187C96.5039 23.766 67.9987 60.2388 66.3085 62.3305L65.4508 63.3911L69.2852 68.3111L73.1195 73.2606L74.0529 72.1411C74.5574 71.5224 81.5954 62.5368 89.6929 52.1665ZM74.406 40.3821C81.3431 31.5143 87.0442 24.1785 87.0946 24.0312C87.1199 23.9133 84.0675 20.4958 80.2836 16.4008L73.397 9.00604H60.9102H48.4234L43.7566 14.1028C41.1836 16.8721 38.0556 20.2602 36.8195 21.5564L34.5744 23.9428L39.7457 30.5421C61.0363 57.823 60.9606 57.7346 61.3895 57.0865C61.6165 56.7624 67.4689 49.2498 74.406 40.3821Z" fill="#EB2A3B" stroke="#EB2A3B"/>
<path d="M55.2345 44.7879C54.1245 43.1839 53.2164 41.7436 53.2164 41.5799C53.2164 41.4162 56.2183 36.9971 59.9013 31.7268C63.5842 26.4893 66.6114 22.0701 66.6618 21.9392C66.687 21.8083 64.5681 19.124 61.9193 15.9488L57.1264 10.1548H62.0455H66.9645L71.6061 15.7524L76.2476 21.3827L66.9897 34.4765C61.9193 41.6781 57.6562 47.6358 57.5048 47.6685C57.3787 47.7013 56.3444 46.4246 55.2345 44.7879Z" fill="#EB2A3B" stroke="#EB2A3B"/>
<path d="M132.498 23.8604H136.098C138.898 23.8604 140.724 25.0337 141.578 27.3804C141.898 28.2337 142.058 29.3604 142.058 30.7604C142.058 32.147 141.904 33.3204 141.598 34.2804C141.291 35.227 140.858 35.967 140.298 36.5004C139.738 37.0337 139.058 37.3937 138.258 37.5804C137.471 37.767 136.584 37.8604 135.598 37.8604H132.498V23.8604ZM133.858 24.9604V36.7604H135.498C136.191 36.7604 136.858 36.7004 137.498 36.5804C139.631 36.207 140.698 34.227 140.698 30.6404C140.698 28.627 140.231 27.1404 139.298 26.1804C138.484 25.367 137.384 24.9604 135.998 24.9604H133.858ZM150.363 23.7804C154.297 23.7804 156.263 26.1537 156.263 30.9004C156.263 33.0737 155.703 34.7937 154.583 36.0604C153.463 37.3137 152.057 37.9404 150.363 37.9404C148.563 37.9404 147.17 37.447 146.183 36.4604C145.037 35.287 144.463 33.5204 144.463 31.1604C144.463 28.8004 145.023 26.9804 146.143 25.7004C147.277 24.4204 148.683 23.7804 150.363 23.7804ZM147.163 35.5004C147.897 36.327 148.963 36.7404 150.363 36.7404C151.683 36.7404 152.77 36.2204 153.623 35.1804C154.477 34.127 154.903 32.6204 154.903 30.6604C154.903 28.7004 154.457 27.227 153.563 26.2404C152.817 25.4004 151.75 24.9804 150.363 24.9804C149.057 24.9804 147.97 25.507 147.103 26.5604C146.25 27.6137 145.823 29.127 145.823 31.1004C145.823 33.0604 146.27 34.527 147.163 35.5004ZM158.607 37.8604V23.8604H159.967L165.107 34.1004L170.247 23.8604H171.607V37.8604H170.347V26.1804L165.787 35.2404H164.427L159.867 26.1804V37.8604H158.607ZM177.991 37.8604H174.231V36.9004L175.431 36.7604V24.9804L174.331 24.8404V23.8604H177.891V24.8404L176.791 24.9804V36.7604L177.991 36.9004V37.8604ZM189.993 37.8604L182.013 25.6604L182.113 37.8604H180.853V23.8604H182.313L190.273 36.0604L190.193 23.8604H191.453V37.8604H189.993ZM202.159 34.1604H195.999L194.719 37.8604H193.419L198.479 23.8604H199.699L204.939 37.8604H203.479L202.159 34.1604ZM196.339 33.1604H201.799L199.019 25.3804L196.339 33.1604ZM216.243 37.8604L208.263 25.6604L208.363 37.8604H207.103V23.8604H208.563L216.523 36.0604L216.443 23.8604H217.703V37.8604H216.243ZM223.375 37.8604V25.0604H219.415L219.515 23.8604H228.575L228.475 25.0604H224.635V37.8604H223.375ZM139.678 49.0604H133.858V54.3204H139.258L139.158 55.5204H133.858V60.6604H140.178L140.078 61.8604H132.498V47.8604H139.778L139.678 49.0604ZM146.916 55.4204L143.236 61.8604H141.836L146.296 54.4004L142.176 47.8604H143.736L147.176 53.5804L150.456 47.8604H151.856L147.796 54.6004L152.376 61.8604H150.816L146.916 55.4204ZM154.646 61.8604V47.8604H157.546C159.186 47.8604 160.373 48.1204 161.106 48.6404C161.96 49.2404 162.386 50.267 162.386 51.7204C162.386 54.147 161.453 55.627 159.586 56.1604C158.986 56.3337 158.306 56.4204 157.546 56.4204H156.006V61.8604H154.646ZM156.006 48.9604V55.3204H157.446C158.646 55.3204 159.54 55.0604 160.126 54.5404C160.726 54.007 161.026 53.147 161.026 51.9604C161.026 50.7604 160.726 49.9604 160.126 49.5604C159.54 49.1604 158.646 48.9604 157.446 48.9604H156.006ZM172.484 51.6204C172.484 53.5404 171.824 54.827 170.504 55.4804L173.524 61.8604H172.064L169.224 55.9004C168.744 55.9804 168.217 56.0204 167.644 56.0204H166.104V61.8604H164.744V47.8604H167.644C169.271 47.8604 170.457 48.1137 171.204 48.6204C172.057 49.1937 172.484 50.1937 172.484 51.6204ZM166.104 48.9604V54.9204H167.544C168.731 54.9204 169.624 54.6804 170.224 54.2004C170.824 53.7204 171.124 52.887 171.124 51.7004C171.124 50.1804 170.431 49.3004 169.044 49.0604C168.604 48.9937 168.104 48.9604 167.544 48.9604H166.104ZM183.018 49.0604H177.198V54.3204H182.598L182.498 55.5204H177.198V60.6604H183.518L183.418 61.8604H175.838V47.8604H183.118L183.018 49.0604ZM193.636 48.2204L193.396 49.3604C192.369 49.1337 191.496 49.0204 190.776 49.0204C188.189 49.0204 186.896 49.807 186.896 51.3804C186.896 51.9804 187.082 52.4404 187.456 52.7604C187.842 53.0804 188.322 53.347 188.896 53.5604C189.482 53.7604 190.109 53.947 190.776 54.1204C191.442 54.2804 192.062 54.5004 192.636 54.7804C193.982 55.447 194.656 56.467 194.656 57.8404C194.656 59.2137 194.142 60.2537 193.116 60.9604C192.236 61.5737 191.076 61.8804 189.636 61.8804C187.849 61.8804 186.342 61.4737 185.116 60.6604L185.636 59.6404C185.996 59.8937 186.509 60.1337 187.176 60.3604C187.842 60.5737 188.489 60.6804 189.116 60.6804C190.342 60.6804 191.309 60.4804 192.016 60.0804C192.869 59.587 193.296 58.8804 193.296 57.9604C193.296 57.2804 193.102 56.7537 192.716 56.3804C192.342 55.9937 191.862 55.687 191.276 55.4604C190.702 55.2204 190.082 55.0204 189.416 54.8604C188.749 54.687 188.129 54.4737 187.556 54.2204C186.209 53.6337 185.536 52.7604 185.536 51.6004C185.536 50.4404 185.936 49.5204 186.736 48.8404C187.536 48.1604 188.669 47.8204 190.136 47.8204C191.269 47.8204 192.436 47.9537 193.636 48.2204ZM204.573 48.2204L204.333 49.3604C203.307 49.1337 202.433 49.0204 201.713 49.0204C199.127 49.0204 197.833 49.807 197.833 51.3804C197.833 51.9804 198.02 52.4404 198.393 52.7604C198.78 53.0804 199.26 53.347 199.833 53.5604C200.42 53.7604 201.047 53.947 201.713 54.1204C202.38 54.2804 203 54.5004 203.573 54.7804C204.92 55.447 205.593 56.467 205.593 57.8404C205.593 59.2137 205.08 60.2537 204.053 60.9604C203.173 61.5737 202.013 61.8804 200.573 61.8804C198.787 61.8804 197.28 61.4737 196.053 60.6604L196.573 59.6404C196.933 59.8937 197.447 60.1337 198.113 60.3604C198.78 60.5737 199.427 60.6804 200.053 60.6804C201.28 60.6804 202.247 60.4804 202.953 60.0804C203.807 59.587 204.233 58.8804 204.233 57.9604C204.233 57.2804 204.04 56.7537 203.653 56.3804C203.28 55.9937 202.8 55.687 202.213 55.4604C201.64 55.2204 201.02 55.0204 200.353 54.8604C199.687 54.687 199.067 54.4737 198.493 54.2204C197.147 53.6337 196.473 52.7604 196.473 51.6004C196.473 50.4404 196.873 49.5204 197.673 48.8404C198.473 48.1604 199.607 47.8204 201.073 47.8204C202.207 47.8204 203.373 47.9537 204.573 48.2204Z" fill="#F2F2F2"/>
</svg>
