<svg width="27" height="25" viewBox="0 0 27 25" fill="none" xmlns="http://www.w3.org/2000/svg">
<path d="M16.7292 18.0245L12.265 13.8308V7.92428H14.78V12.8562L18.4897 16.3411L16.7292 18.0245ZM12.265 5.56166V3.19904H14.78V5.56166H12.265ZM21.0676 13.8308V11.4682H23.5827V13.8308H21.0676ZM12.265 22.1V19.7374H14.78V22.1H12.265ZM3.46231 13.8308V11.4682H5.97735V13.8308H3.46231ZM13.5225 24.4626C11.7829 24.4626 10.1481 24.1525 8.61815 23.5323C7.08816 22.9121 5.75729 22.0704 4.62552 21.0073C3.49375 19.9441 2.59776 18.6939 1.93756 17.2566C1.27737 15.8194 0.947266 14.2837 0.947266 12.6495C0.947266 11.0154 1.27737 9.47967 1.93756 8.04241C2.59776 6.60515 3.49375 5.35493 4.62552 4.29175C5.75729 3.22858 7.08816 2.38689 8.61815 1.76671C10.1481 1.14652 11.7829 0.836426 13.5225 0.836426C15.2621 0.836426 16.8968 1.14652 18.4268 1.76671C19.9568 2.38689 21.2877 3.22858 22.4195 4.29175C23.5512 5.35493 24.4472 6.60515 25.1074 8.04241C25.7676 9.47967 26.0977 11.0154 26.0977 12.6495C26.0977 14.2837 25.7676 15.8194 25.1074 17.2566C24.4472 18.6939 23.5512 19.9441 22.4195 21.0073C21.2877 22.0704 19.9568 22.9121 18.4268 23.5323C16.8968 24.1525 15.2621 24.4626 13.5225 24.4626ZM13.5225 22.1C16.3309 22.1 18.7098 21.1845 20.6589 19.3534C22.6081 17.5224 23.5827 15.2878 23.5827 12.6495C23.5827 10.0113 22.6081 7.77661 20.6589 5.94558C18.7098 4.11456 16.3309 3.19904 13.5225 3.19904C10.714 3.19904 8.33521 4.11456 6.38605 5.94558C4.43689 7.77661 3.46231 10.0113 3.46231 12.6495C3.46231 15.2878 4.43689 17.5224 6.38605 19.3534C8.33521 21.1845 10.714 22.1 13.5225 22.1Z" fill="#EB2A3B"/>
</svg>
