<svg width="100" height="106" viewBox="0 0 100 106" fill="none" xmlns="http://www.w3.org/2000/svg">
<g clip-path="url(#clip0_213_1457)">
<path d="M70.8194 10.9331H83.3194C84.4798 10.9284 85.6284 11.1661 86.6917 11.631C87.7549 12.0958 88.7093 12.7777 89.4938 13.6328C90.2783 14.4878 90.8756 15.4974 91.2473 16.5966C91.6191 17.6959 91.7572 18.8607 91.6527 20.0164C90.2596 32.8379 85.8783 45.1539 78.8611 55.9747C72.4638 66.0421 63.9284 74.5775 53.8611 80.9747C42.9911 88.0165 30.6152 92.3987 17.736 93.7664C16.5838 93.8705 15.4226 93.7336 14.3262 93.3643C13.2298 92.9951 12.2223 92.4015 11.3678 91.6216C10.5134 90.8416 9.83067 89.8922 9.36323 88.834C8.89578 87.7757 8.65381 86.6317 8.65272 85.4747L8.65272 72.9747C8.63282 70.9526 9.34888 68.9923 10.6674 67.4591C11.986 65.9259 13.8171 64.9244 15.8194 64.6414C19.8197 64.1138 23.7474 63.1354 27.5277 61.7247C29.0191 61.1641 30.6399 61.0428 32.1981 61.3751C33.7562 61.7075 35.1865 62.4795 36.3194 63.5997L41.611 68.8914C52.0425 62.9599 60.6796 54.3229 66.611 43.8914L61.3194 38.5997C60.1991 37.4669 59.4271 36.0366 59.0948 34.4784C58.7625 32.9202 58.8838 31.2994 59.4444 29.8081C60.855 26.0278 61.8335 22.1 62.3611 18.0997C62.6466 16.0757 63.6661 14.2272 65.2256 12.9059C66.7851 11.5845 68.7759 10.8824 70.8194 10.9331Z" stroke="#0E0E0E" stroke-width="4" stroke-linecap="round" stroke-linejoin="round"/>
</g>
<defs>
<clipPath id="clip0_213_1457">
<rect width="105.128" height="100" fill="white" transform="matrix(0 -1 1 0 0 105.564)"/>
</clipPath>
</defs>
</svg>
