<svg width="43" height="42" viewBox="0 0 43 42" fill="none" xmlns="http://www.w3.org/2000/svg">
<path d="M41.6316 21C41.6316 31.6024 32.5834 40.2812 21.3158 40.2812C10.0482 40.2812 1 31.6024 1 21C1 10.3976 10.0482 1.71875 21.3158 1.71875C32.5834 1.71875 41.6316 10.3976 41.6316 21Z" stroke="#EDEDED" stroke-width="2"/>
<path d="M29.973 22.9048V22.4048H29.473H26.1596C24.6937 22.4048 23.3461 20.9222 23.3461 18.8896V14.8745C23.3461 12.8419 24.6937 11.3594 26.1596 11.3594H29.473C30.9389 11.3594 32.2865 12.8419 32.2865 14.8745V16.8821V18.8896V23.4067C32.2865 27.3841 29.6446 30.435 26.5737 30.435H26.1596C25.6049 30.435 25.0028 29.8559 25.0028 28.9275C25.0028 27.999 25.6049 27.4199 26.1596 27.4199H26.5737C28.5352 27.4199 29.973 25.5272 29.973 23.4067V22.9048ZM16.7191 22.9048V22.4048H16.2191H12.9056C11.4397 22.4048 10.0921 20.9222 10.0921 18.8896V14.8745C10.0921 12.8419 11.4397 11.3594 12.9056 11.3594H16.2191C17.685 11.3594 19.0326 12.8419 19.0326 14.8745V16.8821V18.8896V23.4067C19.0326 27.3841 16.3906 30.435 13.3198 30.435H12.9056C12.3509 30.435 11.7488 29.8559 11.7488 28.9275C11.7488 27.999 12.3509 27.4199 12.9056 27.4199H13.3198C15.2813 27.4199 16.7191 25.5272 16.7191 23.4067V22.9048Z" fill="#F2F2F2" stroke="#F2F2F2"/>
</svg>
