<svg xmlns="http://www.w3.org/2000/svg" xmlns:xlink="http://www.w3.org/1999/xlink" version="1.1" id="Layer_1" x="0px" y="0px" viewBox="0 0 518 154" style="enable-background:new 0 0 518 154;" xml:space="preserve">
<style type="text/css">
	.st0{fill:#00375D;}
	.st1{fill:#1590F4;}
	.st2{fill-rule:evenodd;clip-rule:evenodd;fill:#1590F4;}
	.st3{fill-rule:evenodd;clip-rule:evenodd;fill:#00375D;}
</style>
<g>
	<g>
		<path class="st0" d="M93.7,81.6c2.4,0,4.1-0.2,5.1-0.6c0.9-0.4,1.4-1.4,1.4-2.9V66.5c0-1.5-0.5-2.5-1.4-3    c-0.9-0.5-2.6-0.7-5.1-0.7H38c-4.8,0-9.3-0.5-13.5-1.4c-4.2-0.9-8-2.5-11.2-4.6C10,54.7,7.4,52,5.5,48.6    c-1.9-3.4-2.8-7.5-2.8-12.4V31c0-4.9,0.9-9,2.8-12.3c1.9-3.3,4.4-6.1,7.7-8.2c3.2-2.1,7-3.6,11.3-4.6c4.3-0.9,8.8-1.4,13.5-1.4    h85.7v22.7H38c-2.4,0-4.1,0.2-5.1,0.7c-0.9,0.5-1.4,1.5-1.4,3v5.5c0,1.5,0.5,2.5,1.4,3c0.9,0.5,2.6,0.7,5.1,0.7h55.7    c4.8,0,9.3,0.5,13.6,1.4c4.3,0.9,8,2.5,11.3,4.6c3.2,2.1,5.8,4.9,7.7,8.2c1.9,3.4,2.8,7.5,2.8,12.4v11.1c0,4.9-0.9,9-2.8,12.4    c-1.9,3.4-4.4,6.1-7.7,8.2c-3.2,2.1-7,3.6-11.3,4.5c-4.3,0.9-8.8,1.4-13.6,1.4H6V81.6H93.7z"/>
		<path class="st0" d="M124.5,104.3l69.7-99.8h19l69.2,99.8h-94.2l-5.9-21.6h54.7l-33.3-46.7l-46.7,68.2H124.5z"/>
		<path class="st0" d="M396.8,4.5v22.7h-84.7c-1.8,0-3.2,0.2-4.1,0.7c-0.9,0.5-1.4,1.7-1.4,3.8v45.4c0,2.1,0.5,3.3,1.4,3.8    c0.9,0.5,2.3,0.7,4.1,0.7l51.9,0.3c2,0,3.4-0.2,4.2-0.6c0.8-0.4,1.3-1.7,1.3-3.9V62.4l-32.7,0.1V40.9h61.5v39.5    c0,5.2-1.3,9.3-3.9,12.5c-2.6,3.2-5.8,5.6-9.7,7.3c-3.9,1.7-8.2,2.8-12.8,3.4c-4.6,0.6-8.9,0.8-12.8,0.8l-45,0.1    c-5,0-9.6-0.3-13.9-0.8c-4.3-0.6-8-1.8-11.2-3.6c-3.2-1.8-5.7-4.5-7.5-8c-1.8-3.5-2.7-8.2-2.7-14.1V31c0-5.9,1.1-10.6,3.2-14.2    c2.2-3.5,5.1-6.2,8.7-8c3.6-1.8,7.7-3,12.3-3.5c4.6-0.5,9.3-0.8,14.1-0.8H396.8z"/>
	</g>
	<g>
		<path class="st1" d="M204,133.8v15.9h-7.2v-38.7h39.3v5.7H204v11.3h29.9v5.7H204z"/>
		<path class="st1" d="M279.3,149.8l-9-17.3h-20.2v17.3H243v-38.7h32.5c8.7,0,12,3.8,12,9.3v2.8c0,5-2.7,8.6-9.5,9.2l9,17.4H279.3z     M280.2,120.4c0-2.3-1.5-3.6-4.8-3.6h-25.3v10h25.3c3.3,0,4.8-1.3,4.8-3.6V120.4z"/>
		<path class="st1" d="M296.3,149.8v-38.7h39.3v5.7h-32.1v9.7H334v5.7h-30.5v11.9h32.1v5.7H296.3z"/>
		<path class="st1" d="M345,149.8v-38.7h7.2v38.7H345z"/>
		<path class="st1" d="M384.7,131.6v-5.4h20.6v15.5c0,1.8-0.5,3.2-1.4,4.3c-0.9,1.1-2.1,1.9-3.5,2.4c-1.4,0.6-2.9,0.9-4.5,1.1    c-1.6,0.2-3.1,0.2-4.5,0.2c-3.1,0-6.1,0-9.1,0c-3,0-6.1,0-9.1,0c-1.7,0-3.4-0.1-4.8-0.2c-1.5-0.2-2.8-0.6-3.9-1.2    c-1.1-0.6-1.9-1.5-2.6-2.8c-0.6-1.2-0.9-2.9-0.9-5v-20.4c0-2.2,0.4-3.9,1.1-5.1c0.8-1.2,1.8-2.2,3-2.8s2.7-1,4.3-1.1    c1.6-0.1,3.3-0.2,5-0.2h30.2v5.3h-32.2c-1.4,0-2.5,0.3-3.2,1c-0.8,0.7-1.2,1.8-1.2,3.2v19.6c0,1.5,0.4,2.6,1.1,3.2    c0.8,0.6,1.8,0.9,3.3,0.9l21,0.1c1.4,0,2.5-0.3,3.3-0.9c0.7-0.6,1.1-1.7,1.1-3.2v-8.7L384.7,131.6z"/>
		<path class="st1" d="M452.6,149.8v-17.6h-31.3v17.6h-7.2v-38.7h7.2v15.4h31.3v-15.4h7.2v38.7H452.6z"/>
		<path class="st1" d="M487.6,149.8v-33h-20v-5.7h46.8v5.7h-19.5v33H487.6z"/>
	</g>
	<rect x="405.9" y="4.2" class="st2" width="109.4" height="23"/>
	<polygon class="st3" points="511.3,38.9 511.3,63.1 436,63.1 436,78.7 515.3,78.7 515.3,103.2 405.9,103.2 405.9,38.9  "/>
</g>
</svg>