<svg xmlns="http://www.w3.org/2000/svg" viewBox="218.80001831054688 16.414390563964844 94.35919189453125 87.78141784667969"><g xmlns="http://www.w3.org/2000/svg" fill="#0093c9"><path class="st1" d="M273.1 62.5c13.4-6.1 24-16.7 30.2-29.9-10.3-12.6-27.2-19-44.1-15-22 5.2-36.2 26.2-33.5 48.1 16.6 4.7 33.5 3.2 47.4-3.2zM312 50.2c-1-4-2.4-7.8-4.3-11.2-2.6 14-9 26.5-18.3 36.1-11.7 12.2-28.1 19.7-46 20.6 10 7.3 23 10.4 36 7.3 23.5-5.6 38.1-29.2 32.6-52.8z"></path><path class="st2" d="M219.5 75c-.2-.2-.3-.5-.5-.7.2.2.4.5.5.7zM220.8 77.1c-.1-.2-.3-.4-.4-.6.2.2.3.4.4.6z" fill="#0093c9"></path><path class="st1" d="M281.1 69c16.3-11.4 26.7-30.3 27.2-51.7-1.1 21.1-12.2 39.6-28.9 50.4-16.6 10.8-39 13.9-60.6 6.2.1.1.2.3.2.4.2.2.3.5.5.7l.9 1.5c.1.2.3.4.4.6.1.2.2.4.3.5 21.8 6.8 43.8 2.9 60-8.6z" fill="#0093c9"></path></g></svg>