<svg width="19" height="25" viewBox="0 0 19 25" fill="none" xmlns="http://www.w3.org/2000/svg">
<path d="M8.87865 24.3522C2.06781 14.4785 0.803589 13.4652 0.803589 9.83642C0.803589 4.86585 4.83301 0.836426 9.80359 0.836426C14.7742 0.836426 18.8036 4.86585 18.8036 9.83642C18.8036 13.4652 17.5394 14.4785 10.7285 24.3522C10.2816 24.9979 9.32556 24.9978 8.87865 24.3522ZM9.80359 13.5864C11.8747 13.5864 13.5536 11.9075 13.5536 9.83642C13.5536 7.76535 11.8747 6.08642 9.80359 6.08642C7.73251 6.08642 6.05359 7.76535 6.05359 9.83642C6.05359 11.9075 7.73251 13.5864 9.80359 13.5864Z" fill="#EB2A3B"/>
</svg>
